<svg xmlns="http://www.w3.org/2000/svg" xmlns:xlink="http://www.w3.org/1999/xlink" version="1.1" id="Layer_1" x="0px" y="0px" width="100px" height="100px" viewBox="0 0 100 100" enable-background="new 0 0 100 100" xml:space="preserve">
<path d="M95.136,84.427c-0.296-1.776-3.236-4.403-3.67-5.016c-1.147-1.62-19.781-22.566-23.213-25.384  c-1.419-1.166-3.486-3.671-3.486-3.671S36.974,19.228,31.891,9.314c-0.71-1.385-2.068-0.552-2.068-0.552S7.649,21.761,6.169,22.649  c-1.479,0.888-1.58,0.707-0.158,3.552c4.296,8.591,28.807,34.686,43.309,43.565c0,0,3.954-10.347,7.399-12.429  c0.846-0.513,2.221-0.513,2.221-0.513s0.4,1.979,2.22,4.212c3.701,4.547,10.212,12.271,15.626,17.274  c3.089,2.855,9.53,8.917,9.53,10.102c0,1.183,0.162,3.65,2.825,3.354S95.432,86.202,95.136,84.427z M29.444,18.367  c-1.351,0-2.446-1.096-2.446-2.447s1.095-2.447,2.446-2.447c1.352,0,2.447,1.096,2.447,2.447S30.795,18.367,29.444,18.367z   M66.938,61.428c-0.912,0-1.651-0.738-1.651-1.65s0.739-1.651,1.651-1.651s1.65,0.739,1.65,1.651S67.851,61.428,66.938,61.428z   M79.783,75.374c-0.913,0-1.651-0.74-1.651-1.65c0-0.912,0.738-1.652,1.651-1.652c0.912,0,1.652,0.74,1.652,1.652  C81.436,74.634,80.695,75.374,79.783,75.374z M91.16,86.751c-0.912,0-1.652-0.739-1.652-1.651s0.74-1.652,1.652-1.652  s1.651,0.74,1.651,1.652S92.072,86.751,91.16,86.751z"/>
</svg>