<?xml version="1.0" encoding="utf-8"?>
<!-- Generator: Adobe Illustrator 18.0.0, SVG Export Plug-In . SVG Version: 6.00 Build 0)  -->
<!DOCTYPE svg PUBLIC "-//W3C//DTD SVG 1.1//EN" "http://www.w3.org/Graphics/SVG/1.1/DTD/svg11.dtd">
<svg version="1.1" id="Layer_1" xmlns="http://www.w3.org/2000/svg" xmlns:xlink="http://www.w3.org/1999/xlink" x="0px" y="0px"
	 viewBox="3 13 94 74.7" enable-background="new 3 13 94 74.7" xml:space="preserve">
<path d="M90.1,18.2C84,5.3,71.3,24.7,46.6,22.7v0c-24.7-2-42.3,9-42.2,24.7C4.5,63.3,9.6,76.8,37.2,75
	C64.7,73.3,96.2,31.1,90.1,18.2z M38.2,48.9l-4.4,12.4l1.3-14l-13.5-6.9l0,0l0,0l0,0l14.6,4.1l26.9-12.5l1.7,4.3L38.2,48.9z"/>
<path id="_380243240" d="M94.3,28.3c11.9,33.9-64.3,80.4-79.2,45.5C42.5,89.4,82.5,60.4,94.3,28.3z"/>
<polygon id="_206167344" fill="none" stroke="#000000" stroke-width="0.9" points="21.6,40.4 36.2,44.5 63.1,32.1 64.7,36.4 
	38.2,48.9 33.8,61.3 35.1,47.3 "/>
</svg>
